<svg width="226" height="40" viewBox="0 0 226 40" fill="none" xmlns="http://www.w3.org/2000/svg">
<path d="M67.8369 5.68848C64.8111 5.68848 62.4511 6.47516 61.6039 6.77773C61.6039 6.77773 61.6039 6.77773 61.5434 6.77773C61.3013 6.83824 60.3331 7.26184 60.3331 7.26184L60.6356 8.16955L60.8777 8.95627C60.8777 9.01679 60.9987 9.25884 61.0592 9.44038C61.1803 9.80347 61.3013 10.1666 61.3013 10.1666L62.088 9.86399L62.5116 9.74295C63.4193 9.44038 65.3558 8.89574 67.5948 8.89574C68.563 8.89574 69.1682 9.07728 69.5918 9.50088C70.2574 10.2271 70.439 11.5584 70.439 13.4343C69.8338 13.2528 68.2605 12.8897 66.6871 12.8897C62.0275 12.8897 59.0623 15.3708 59.0623 19.3042C59.0623 22.9956 61.4828 25.5977 64.9927 25.5977C67.6553 25.5977 69.5313 24.448 70.681 23.3587V23.4192V25.1136H71.8913H73.8278V21.5433V13.6764C73.9488 8.53266 72.9806 5.68848 67.8369 5.68848ZM70.439 20.0304C69.7128 21.0592 67.8369 22.5115 65.5373 22.5115C63.7824 22.5115 62.5116 21.2407 62.5116 19.4253C62.5116 17.2467 64.1455 15.9154 66.7476 15.9154C68.5025 15.9154 69.7733 16.218 70.439 16.5811V20.0304Z" fill="#243746"/>
<path d="M55.7943 7.44341L56.1574 6.59619L55.2497 6.17258C54.463 5.74898 53.1922 5.68848 52.345 5.68848C49.1982 5.68848 47.4433 7.26186 46.8382 7.92752V7.86698V6.11209H45.6279H43.6914V9.68242V25.1741H47.3223V11.6794C47.5643 11.3769 49.0772 9.19831 52.2239 9.19831C52.7686 9.19831 53.3737 9.31935 53.7368 9.44038L54.7655 9.86399L55.0681 9.19831C55.0681 9.19831 55.0681 9.13781 55.1286 9.13781L55.2497 8.95627C55.4312 8.35113 55.7943 7.50392 55.7943 7.44341Z" fill="#243746"/>
<path d="M37.8822 22.6324L36.7325 20.696L35.7642 21.1196C35.7642 21.1196 33.6462 22.1483 32.4359 22.1483C31.1046 22.1483 31.1046 22.0273 31.1046 20.0908V9.37974H37.3981V6.17248H31.1651V2.23904V0H27.5343V1.14979V6.11198H24.2665V9.31924H27.5343V20.3329C27.5343 22.935 27.8973 25.6581 32.0123 25.6581C34.2514 25.6581 36.793 24.4478 37.4586 24.0242C37.5191 24.0242 37.5191 23.9637 37.5797 23.9637L38.3663 23.5401L37.8822 22.7535C37.9427 22.6324 37.9427 22.6324 37.8822 22.6324Z" fill="#243746"/>
<path d="M148.321 22.6929C148.321 22.6929 148.321 22.6324 148.26 22.6324L147.111 20.696L146.142 21.1196C146.142 21.1196 144.024 22.1483 142.814 22.1483C141.483 22.1483 141.483 22.0273 141.483 20.0908V9.37974H147.897V6.17248H141.604V2.23904V0H137.973V1.14979V6.11198H134.705V9.31924H137.973V20.3329C137.973 22.935 138.336 25.6581 142.451 25.6581C144.69 25.6581 147.232 24.4478 147.897 24.0242C147.958 24.0242 147.958 23.9637 148.018 23.9637L148.805 23.5401L148.321 22.6929Z" fill="#243746"/>
<path d="M81.6341 31.891C81.6341 34.1906 80.8474 35.7639 79.5161 36.4296C79.0925 36.6111 78.5479 36.7322 77.9427 36.7322C76.8534 36.7322 75.2196 35.885 74.6749 35.4008C74.6749 35.4008 74.6749 35.4008 74.6144 35.4008C74.5539 35.3403 74.4329 35.2798 74.3724 35.2193C74.1908 35.0983 73.9488 34.9773 73.7067 34.7352L73.4041 35.2193L72.3754 36.7927L71.9518 37.5188C72.4359 37.8819 72.8595 38.1845 73.2831 38.4871C73.5857 38.7292 74.0093 38.9712 74.4934 39.2133C75.4011 39.6369 76.5509 40 77.9427 40C78.0637 40 78.2453 40 78.3663 40C82.7234 39.8184 85.265 36.7927 85.265 31.891V6.17236H81.6341V31.891Z" fill="#243746"/>
<path d="M107.837 22.0878C107.837 22.0273 107.776 22.0273 107.776 21.9668C107.655 21.7853 107.534 21.6037 107.413 21.4222C107.292 21.3012 107.232 21.1196 107.11 20.9986L106.566 20.2119L105.598 20.817L105.477 20.8775C103.964 21.7853 102.511 22.2694 100.938 22.2694C97.9123 22.2694 95.1891 19.6673 94.8866 16.581H108.079H109.229L109.168 14.2815C109.168 9.25879 105.537 5.62793 100.514 5.62793C95.1286 5.62793 91.1952 9.80343 91.1952 15.6128C91.1952 21.4222 95.1286 25.5977 100.514 25.5977C103.601 25.5977 106.142 24.4479 107.413 23.4192L108.321 22.7535L107.837 22.0878ZM100.696 8.95623C103.238 8.95623 105.416 11.0137 105.658 13.6158H95.0681C95.5522 10.8927 97.8518 8.95623 100.696 8.95623Z" fill="#243746"/>
<path d="M129.138 19.0621L128.291 19.9698C128.23 20.0303 128.109 20.1514 128.049 20.2119C127.08 21.1801 125.991 22.2694 123.571 22.2694C120.242 22.2694 117.64 19.4252 117.64 15.7338C117.64 12.1029 120.303 9.3193 123.631 9.3193C125.205 9.3193 126.717 10.0455 127.807 11.1952L128.593 12.1029L129.562 11.2558L130.167 10.7111L130.288 10.5901L131.195 9.80341L130.348 8.77465C128.654 6.71716 126.415 5.62793 123.692 5.62793C118.366 5.62793 113.888 10.227 113.888 15.6733C113.888 21.2406 118.185 25.5977 123.631 25.5977C126.536 25.5977 129.198 24.1453 130.832 21.7853L131.559 20.817L129.138 19.0621Z" fill="#243746"/>
<path d="M156.127 6.47478C156.127 6.17221 156.369 5.93018 156.611 5.93018H162.844C168.23 5.93018 172.587 10.2872 172.587 15.673C172.587 21.0588 168.17 25.4158 162.844 25.4158H156.611C156.309 25.4158 156.127 25.1738 156.127 24.8712V6.47478ZM162.36 23.5399C166.899 23.5399 170.227 20.2721 170.227 15.673C170.227 11.1344 166.899 7.86661 162.36 7.86661H158.185V23.5399H162.36Z" fill="#00664F"/>
<path d="M175.431 24.7505L183.903 5.99105C183.964 5.80951 184.145 5.68848 184.388 5.68848H184.69C184.932 5.68848 185.053 5.80951 185.174 5.99105L193.586 24.7505C193.767 25.1136 193.525 25.4767 193.102 25.4767H192.012C191.77 25.4767 191.589 25.2952 191.528 25.1741L189.471 20.575H179.607L177.549 25.1741C177.489 25.2952 177.307 25.4767 177.065 25.4767H175.976C175.492 25.4767 175.25 25.1136 175.431 24.7505ZM188.624 18.8201C187.232 15.7944 185.9 12.7081 184.569 9.68242H184.327L180.273 18.8201H188.624Z" fill="#00664F"/>
<path d="M199.516 7.86714H194.675C194.372 7.86714 194.13 7.62511 194.13 7.32254V6.53586C194.13 6.23328 194.372 5.99121 194.675 5.99121H206.475C206.778 5.99121 207.02 6.23328 207.02 6.53586V7.32254C207.02 7.62511 206.778 7.86714 206.475 7.86714H201.634V24.9322C201.634 25.2348 201.392 25.4769 201.09 25.4769H200.061C199.758 25.4769 199.516 25.2348 199.516 24.9322V7.86714Z" fill="#00664F"/>
<path d="M207.625 24.7505L216.097 5.99105C216.158 5.80951 216.339 5.68848 216.581 5.68848H216.884C217.126 5.68848 217.247 5.80951 217.368 5.99105L225.78 24.7505C225.961 25.1136 225.719 25.4767 225.295 25.4767H224.146C223.904 25.4767 223.722 25.2952 223.662 25.1741L221.604 20.575H211.74L209.683 25.1741C209.622 25.2952 209.441 25.4767 209.199 25.4767H208.109C207.686 25.4767 207.504 25.1136 207.625 24.7505ZM220.878 18.8201C219.486 15.7944 218.155 12.7081 216.823 9.68242H216.581L212.527 18.8201H220.878Z" fill="#00664F"/>
<path d="M18.2149 6.23291H0V9.86378H14.8866V25.295H18.2149V6.23291Z" fill="#6FA287"/>
</svg>
